<?xml version="1.0" encoding="UTF-8"?>
<!DOCTYPE svg PUBLIC "-//W3C//DTD SVG 1.1//EN" "http://www.w3.org/Graphics/SVG/1.1/DTD/svg11.dtd">
<!-- Creator: CorelDRAW 2020 (64-Bit) -->
<svg xmlns="http://www.w3.org/2000/svg" xml:space="preserve" width="1821px" height="1557px" version="1.1" style="shape-rendering:geometricPrecision; text-rendering:geometricPrecision; image-rendering:optimizeQuality; fill-rule:evenodd; clip-rule:evenodd"
viewBox="0 0 1956.57 1672.74"
 xmlns:xlink="http://www.w3.org/1999/xlink"
 xmlns:xodm="http://www.corel.com/coreldraw/odm/2003">
 <defs>
  <style type="text/css">
   <![CDATA[
    .str1 {stroke:black;stroke-width:6.72;stroke-miterlimit:22.9256}
    .str2 {stroke:black;stroke-width:4.48;stroke-miterlimit:22.9256}
    .str0 {stroke:#606062;stroke-width:44.78;stroke-miterlimit:22.9256}
    .fil0 {fill:none}
    .fil1 {fill:#606062}
    .fil2 {fill:#707070}
    .fil3 {fill:#ED9121}
   ]]>
  </style>
 </defs>
 <g id="Capa_x0020_1">
  <metadata id="CorelCorpID_0Corel-Layer"/>
  <path class="fil0 str0" d="M386.14 1238.85c3.58,309.4 270.45,246.05 436.57,253.88"/>
  <path class="fil1" d="M1000.12 1410.42c0.22,-19.5 4.5,-60.74 6.13,-83.37 0.27,-3.68 0.52,-7.08 0.87,-10.78l2.38 -31.07c1.1,-11.95 1.86,-26.98 2.75,-40.08l12.44 -165.81c45.04,2.4 96.43,0.21 142.16,0.21 17.89,0 24.26,-0.92 40.84,4.34l4.79 1.6c0.29,0.11 0.62,0.23 0.9,0.34 58.81,22.57 71.65,75 95.67,133.87 3.58,8.79 37.91,102.17 37.95,102.32l-48.99 -55.93c-5.35,2.43 -16.38,11.76 -21.72,13.13l-13.01 -18.13 -19.75 13.8c2.56,7.21 9.64,12 11.58,19.8 -5.13,2.15 -13.74,8.67 -18.8,11.15 2.52,7.42 16.01,28 20.93,36.9 8.2,14.83 60.55,101.63 61.96,107.33l-100.94 -0.33c-5.19,-27.69 -8.28,-74.02 -19.63,-92.97l-1.97 -3.13c-21.79,-30.5 -51.24,-16.12 -82.99,-20.47 -0.46,-12.09 -2.13,-24.95 -4.36,-36.77 -1.15,-6.09 -2.58,-11.26 -4.13,-17.14l-4.4 -13.6c-3.72,-8.99 -8.87,-17.42 -23.28,-19.41 -10.12,-1.4 -30.37,-3.63 -34.85,6.46 -1.77,3.98 4.63,140.33 6.32,153.53l116.3 61c2.17,1.25 1.39,0.86 3.01,1.7l21.04 10.96c4.77,2.35 8.81,4.63 14.01,7.45 6.97,3.78 8.15,2.65 18.24,2.56 28.14,-0.26 56.93,0.76 84.95,-0.17l-12.72 26.04c-17.03,0 -34.06,0 -51.08,0 -12.15,0 -36.77,2.18 -46.03,-2.85 -20.47,-11.11 -44.02,-23.44 -65.58,-34.45 -19.22,-9.83 -45.1,-23.13 -65.28,-34l-65.71 -34.03zm476.4 -340.28c6.74,1.88 35.87,12.53 38.83,16.84l0.03 11.61 -38.66 -14.99 -0.2 -13.46zm0.57 -33.58c6.24,2.58 12.63,5.06 19.61,7.83 21.99,8.71 18.64,4.69 18.67,20.63l-38.75 -15.16 0.47 -13.3zm0 -33.58c1.4,0.57 3.12,1.16 4.67,1.82l24.83 9.83c1.31,0.49 4.36,1.44 5.42,2.02 4.58,2.49 3.34,2.96 3.37,14.77l-38.88 -15.12 0.59 -13.32zm-664.68 469.22l0 35.44c4.71,13.42 -2.35,55.45 23.27,95.21l21.92 -0.58c1.45,-21.34 -3.33,-31.06 9.71,-58.66l10.65 -16.77c25.91,-33.73 67.01,-50.36 109.56,-38.81 0.36,0.09 0.66,0.18 1.01,0.28 0.35,0.09 0.66,0.18 1,0.28 3.18,0.9 0.74,0.16 2.98,0.86 0.69,0.21 2.86,0.96 4.57,1.62 8.39,3.27 11.44,4.07 19.31,9.39l7.76 5.29c4.94,3.42 10.95,9.15 14.54,13.49 7.71,9.32 15.12,19.27 20.64,34.74 8.86,24.81 3.97,32.19 5.74,49.54 12.29,-3.31 91.34,-0.87 110.49,-0.86 35.82,0.01 74.13,1.26 109.48,-0.11l0.17 21.77 44.35 0c-6.09,-20.32 -11.17,-31.94 -8.09,-58.25 2.51,-21.49 11.45,-39.84 21.59,-52.86 9.27,-11.92 23.5,-26.55 40.43,-34.16 15.42,-6.93 17.82,-8.4 37.4,-10.99 10.6,-1.41 22.09,-0.82 31.9,0.99l11.21 2.59c0.3,0.08 0.63,0.17 0.93,0.26l12.68 4.47c30.01,12.04 53.3,39.52 62.82,69.48 8.17,25.75 4.68,34.9 3.34,57.67 6.28,-1.7 19.7,-1.84 26.29,0l0.5 -165.95 -33.45 0.21 0.33 -135.38 72.12 -0.22 0.03 8.66 346.98 0 0 -68.25 -346.68 0.02 -0.59 15.7c-15.44,-5.19 -24.37,-11.74 -30.01,-28.58 -0.73,-2.18 -1.28,-4.2 -1.74,-6.18 -4.41,-19.08 -3.05,-173.39 -2.21,-195.53l-38.19 0.09 0.1 -64.25 -94.77 0.59 -0.03 35.47c0.27,0.23 0.65,0.48 0.86,0.62l4.32 2.48c0.28,0.13 0.6,0.25 0.88,0.36l4.91 1.52 -0.13 106.11 12.12 5.87 0.01 310.09 -31.56 -0.09c-1.94,-5.93 -32.69,-36.87 -35.61,-44.75l-40.03 -119.06c-0.11,-0.3 -0.22,-0.62 -0.33,-0.93l-32.08 -86.64c-1.11,-2.8 -2.31,-5.87 -3.41,-8.81l-14.84 -34.71c-22.21,-49.07 -65.26,-90.87 -122.04,-92.63 -69.98,-2.16 -142.16,2.44 -212.02,-0.2l0.17 40.21 16.47 0.14 -16.06 212.82 -97.48 0.58 -20.22 30.95c-17.96,31.3 -14.1,24.9 -27.26,57.9l43.33 0.1 -0.08 25.92 -51.1 0.41 -5.54 32.08 43.64 0.33 -0.11 25.56 -46.08 -0.04 -0.77 6.09z"/>
  <path class="fil1" d="M1658.99 903.11c38.62,1.01 78.49,0.1 117.25,0.1 54.66,0 33.7,-3.66 68.58,18.72l13.03 8.81c2.14,1.64 1.03,0.81 2.22,1.95 0.19,0.18 0.58,1.06 0.72,0.83 0.13,-0.24 0.5,0.55 0.69,0.8l-202.71 0.07 0.22 -31.28zm243.81 8.22c-5.01,-2.6 -7.34,-5.07 -11.57,-8.05l11.57 0.05 0 8zm-244.13 -56.05c26.89,1.11 61.14,-2.32 86.52,0.17 4.78,0.47 10.19,4.62 14.17,7.31l35.23 24.54c0.21,0.21 0.54,0.6 0.71,0.77l-136.58 1.84 -0.05 -34.63zm220.8 34.45c-10.61,0 -11.54,-2.06 -17.74,-6.11l-26.5 -18.32c-6.87,-4.78 -8.09,-4.38 -13.39,-9.86l81.07 0.2 0 33.87 -23.44 0.22zm-220.67 -78.84c20.65,0.58 21.51,-3.76 36.58,8.01 7.67,6 28.8,19.08 32.16,22.88l-68.69 0.29 -0.05 -31.18zm244.26 0.19l-0.38 30.7 -65.5 0.01c-37.46,0.01 -30.96,3.26 -52.03,-10.89 -8.29,-5.57 -19.65,-14.78 -27.98,-18.51l145.89 -1.31zm-0.26 -13.78c-25.52,1.78 -114.3,0.12 -148.96,0.16 -15.61,0.02 -14.07,2.2 -24.87,-5.22l-34.83 -24.79c68.73,0.39 140.62,-0.81 208.72,0.2l-0.06 29.65zm33.49 -63.52l-311.23 0c0,24.71 -1.7,228.79 1.08,233.56 2.28,2.3 149.76,0.82 153.83,0.82 37.13,0 125.08,1.69 155.88,-0.15l0.44 -234.23z"/>
  <path class="fil1" d="M1658.66 1159.68c9,-1.78 121.86,-0.51 144.94,-0.57 17.7,-0.05 13.15,-0.75 23.85,6.54 7.81,5.32 9.65,5.94 17.75,11.87 4.07,2.99 14.08,8.43 16.65,12.27l-190.08 0.01c-3.74,0.03 -9.34,0.63 -12.52,-1.03l-0.59 -29.09zm232.57 0l11.81 -0.63 -0.07 7.85c-4.92,-2.13 -6.95,-4.61 -11.74,-7.22zm-232.28 -48.22l82.47 -0.44c12.58,-0.01 14.22,5.74 28.99,15.33 5.48,3.56 22.87,14.46 26.41,18.72l-135 0.1c-4.56,-0.84 -3.24,-0.07 -3.13,-14.66 0.05,-6.09 -0.19,-13.1 0.26,-19.05zm183.21 -0.44l60.52 -0.12 0.1 34.12 -23.31 0.06c-12.98,-0.01 -13.45,-2.33 -30.16,-14.33l-27.47 -18.48c1.97,-1.08 -0.76,-0.62 4.35,-1.34l15.97 0.09zm-183.37 -26.53l-0.13 -17.79c35.87,0 24.61,-0.04 61.32,24.87l7.34 5.74 -68.68 0 0.15 -12.82zm98.71 -17.5c25.96,-1.56 114.32,-0.53 145.54,-0.25l-0.08 30.45 -98.11 0.12c-6.71,0 -16.61,-8.84 -24.35,-14.02 -3.17,-2.13 -20.17,-13.32 -23,-16.3zm-94.74 -14.83c-2.53,1.46 -2.64,2.2 -4.32,-1.25 2.35,-1.45 1.49,-1.85 4.32,1.25zm77.42 0.54c-7.12,0 -17.14,-9.36 -23.84,-14 -4.78,-3.31 -5.84,-3.88 -11.21,-7.41 -4.43,-2.92 -6.88,-3.59 -10.39,-8.24l208.22 0.24 0.08 29.37 -162.86 0.04zm195.78 -63.14c-12.5,2.35 -201.87,0.7 -231.85,0.7 -22.35,0 -57.73,2.1 -78.49,-0.4l0.27 233.04 309.91 0.04 0.16 -233.38z"/>
  <path class="fil1" d="M1437.79 1531.54c56.88,6.21 58.98,88.41 2.57,96.31 -56.27,7.87 -74.89,-67.46 -31.51,-89.85 1.1,-0.57 2.37,-1.09 4.37,-2.03 11.09,-5.2 7.88,-2.34 13.74,-3.34l10.83 -1.09zm-15.61 141.2l19.83 0c10.57,-4.47 11.74,0.78 34.73,-10.92 42.6,-21.68 59.92,-73.23 43.53,-114.63 -5.14,-13 -11.89,-24.35 -21.86,-33.75 -84.06,-79.24 -212.26,32.58 -134.57,128.25 4.72,5.81 13.36,12.52 19.47,16.48l2.35 1.52c0.25,0.16 0.55,0.35 0.8,0.5 6.82,4.16 17.58,8.57 26.45,10.27 3.4,0.65 6.55,0.94 9.27,2.28z"/>
  <path class="fil1" d="M1006.72 1594.39c-8.85,61.82 -99.68,47.82 -91.12,-12.39 1.95,-13.67 9.03,-22.01 16.49,-28.3 14.94,-12.58 35.59,-14.09 52.2,-4.3 6.06,3.57 8.64,6.22 12.86,11.32 5.81,7.04 11.58,19.63 9.57,33.67zm-55.88 78.35l20.38 0c5.58,-2.69 14.46,-1.18 31.04,-10.3 8.9,-4.9 15.75,-11.54 22.27,-18.85 6.61,-7.4 7.09,-7.04 12.47,-18.64 0.97,-2.08 2.31,-5.47 2.89,-7.06 7.4,-20.44 7.28,-46.05 -3.62,-66.83 -9.27,-17.68 -23.81,-31.66 -42.57,-39.71 -9.46,-4.06 -22.29,-6.75 -33.15,-6.6 -60.37,0.86 -98.47,61.4 -77.65,114.94 3.39,8.71 10.33,19.8 15.17,24.66 27.9,28.01 36.62,20.67 52.77,28.39z"/>
  <path class="fil1" d="M1201.11 1260.52c1.55,7.26 5.77,9.16 11.4,19.21 4.63,-1.54 11.7,-7.08 17,-10.73l25.06 -17.16c6.85,-4.28 19.32,-11.49 24.67,-16.64l-9.69 -18.23c-0.16,-0.17 -0.48,-0.5 -0.72,-0.75l-67.72 44.3z"/>
  <path class="fil2" d="M1625.62 989.86c20.76,2.5 56.14,0.4 78.49,0.4 29.98,0 219.35,1.65 231.85,-0.7l-0.16 233.38 -309.91 -0.04 -0.27 -233.04zm310.34 -0.3c-8.6,-1.99 -206.46,-0.65 -233.09,-0.6 -12.85,0.02 -25.7,-0.01 -38.56,0l-37.86 0.58c-0.19,0.04 -0.56,0.2 -0.83,0.32l-1.09 57.32c0.49,33.46 -1.49,156.94 0.39,177.08l311.53 -0.01c1.55,-10.38 0.73,-153.65 0.53,-175.82 -0.05,-5.03 1.48,-54.47 -1.02,-58.87z"/>
  <g id="_1081723248">
   <path class="fil3 str1" d="M527.24 1169.62l-282.09 0c-58.22,0 -113.25,-153.44 -127.08,-195.31 -27.36,-82.81 -47.55,-171.21 -47.55,-279.31l0 -514.92c0,-45.68 68.34,-55.86 119.96,-68.11 104.71,-24.84 218.55,-28.48 327.63,-13.01 12.32,-24.27 28.22,-46.4 47,-65.74 -61.97,-9.29 -124.61,-13.94 -164.05,-18.31l-124.2 8.82c-52.84,5.98 -179.43,30.88 -220.81,56.81 -24.39,15.28 -52.69,48.68 -52.69,86.1l0 568.66c0,158.22 62.62,323.08 137.86,444.22 23.52,37.87 70.6,66.22 130.79,66.22l228.36 0c44.01,0 75.13,-8.82 101.23,-28.62 95.38,-72.36 176.91,-350.6 176.39,-490.76 -0.29,-79.27 0.1,-158.68 0.83,-238.11 -6.94,0.53 -13.94,0.81 -21.02,0.81 -16.03,0 -31.73,-1.41 -46.98,-4.1l0 205.56c0,104.69 -21.13,206.28 -48.68,282.66 -6.81,18.86 -15.11,40.07 -23.03,57.57l-56.5 109.17c-10.78,17.51 -29.03,29.7 -55.37,29.7z"/>
   <path class="fil3 str1" d="M530.77 200.05l0 33.82c2.07,4.76 3.73,34.54 15.09,62.33 11.36,27.8 24.79,48.27 45.46,69.63 50.07,51.71 123.59,76.48 198.11,61.43 8.23,-1.67 7.58,-2.85 12.44,2.21l67.27 65.95c8.25,-3.1 15.61,-17.05 26.76,-22.02 -2.03,-4.99 0.47,-1.79 -4.36,-5.4 -5.39,-4.03 -5.92,-3.44 -11.06,-10.22 -25.25,-33.33 -29.38,-73.65 -5.77,-108.93 8.1,-12.1 18.11,-19.08 29.09,-29.09 10.39,-9.49 19.44,-18.8 29.43,-28.74 15.57,-15.46 22.7,-18.13 25.65,-32.3 16.36,-78.75 -14.64,-157.17 -74.83,-207.01 -33.59,-27.81 -78.28,-45.54 -125.12,-48.17 -24.32,-1.36 -81.9,4.78 -97.72,17.99 3.28,5.11 40.68,40.68 48.23,48.11 16.43,16.16 32.17,31.47 48.5,47.67 14.44,14.33 32.91,28.82 38.43,57.52 10.47,54.44 -37.79,103.26 -94.25,91.02 -28.68,-6.22 -42.19,-24.85 -56.99,-39.32l-72.49 -71.16c-6.85,-6.81 -16.56,-17.86 -24.03,-23.48 -4.15,11.14 -7.64,19.75 -10.97,31.93 -2.39,8.77 -4.29,30.33 -6.87,36.23z"/>
   <path class="fil3 str1" d="M1504.31 344.32c-4.78,-10.26 -0.48,-12.46 -14.14,-29.63l-153.4 -151.74 -128.08 125.61c-45.3,-2.22 -95.46,-0.29 -141.28,-0.29 -16.26,0 -55.35,-1.82 -68.27,2.31 -22.63,7.24 -49.4,44.11 -75.46,64.53 -11.94,9.35 -24.95,21.69 -24.62,45.18 0.64,45.84 53.39,61.13 80.42,40.29 6.43,-4.96 13.04,-11.53 18.85,-16.79 6.39,-5.8 11.48,-11.13 17.7,-16.72 4.02,-3.61 15.17,-15.71 18.62,-17.14 4.21,-1.75 97.74,-1.29 104.1,-0.91 6.9,0.42 7.51,2.86 11.54,6.72 3.13,3.01 5.4,5.68 8.83,8.95l88.35 86.2c12.13,11.96 22.95,23.52 34.95,35.1l35.43 34.1 97.37 -95.77c18.74,-18.67 56.76,-55.03 73.19,-72.83 13.68,-14.83 11.06,-21.93 15.9,-31.73l0 -15.44z"/>
   <path class="fil3 str1" d="M1080.46 428.42c-9.4,0 -26.74,-2.33 -32.59,2.2l-34.86 32.8c-3.73,3.31 -16.76,12.72 -18.43,15.79 6.98,4.67 14.33,14.11 19.38,23.21 32.3,0.97 45.16,1.39 65.86,19.57 13.55,11.89 25.92,28.74 28.65,55.59 9.06,4.66 16.5,6.92 23.47,12.18 23.03,17.38 32.35,39.57 33,71.7 5.23,4.13 10.96,7.56 15.63,11.51 25.39,21.44 34.37,65.91 17.17,97.49 -6.97,12.79 -14.62,19.56 -21.79,29.45 12.18,11.63 23.49,23.47 35.9,35.28 12.15,11.56 22.46,23.73 36.59,34.61 27.27,21 74.23,27.61 111.32,11.56 69.44,-30.06 91.15,-123.65 31.94,-182.08l-107.07 -105.48c-46.16,-46.36 -94.96,-95.88 -141.77,-140.76 -9.39,-9 -21.38,-24.19 -29.05,-24.66l-33.35 0.04z"/>
   <path class="fil3 str1" d="M985.34 686.85c0.06,9.59 -13.65,17.95 -9.87,39.27 1.94,10.92 8.24,20.36 14.02,25.12 25.55,21.05 48.59,3.07 59.27,0.27 -4.09,14.36 -13.59,20.17 -8.76,40.73 6.33,26.93 38.2,41.38 63.44,26.36 11.09,-6.6 26.9,-28.34 36.58,-39.37 3.84,-4.37 7.56,-9.03 11.53,-13.45 20.79,-23.16 20.11,-52.26 -3.31,-67.63 -18.56,-12.19 -30.47,-4.84 -40.91,-6.58 1.33,-0.63 7.74,-8.79 9.65,-11.44 18.6,-25.89 3.13,-61.57 -27.78,-66.54 -17.48,-2.81 -22.55,4.59 -35.63,6.45 1.83,-4.53 7.45,-11.26 10.38,-16.63 3.59,-6.58 5.38,-13.99 4.78,-22.72 -2.02,-29.35 -35.94,-49.5 -63.56,-33.7 -6.45,3.68 -10.27,8.1 -14.82,12.47l-10.19 10c-0.74,0.74 -0.98,0.98 -1.76,1.78 -0.12,0.12 -0.49,0.79 -0.57,0.6 -0.09,-0.19 -0.42,0.82 -0.94,0.78l-0.71 -1.74c5.38,-10.96 10.38,-30.91 4.91,-45.16 -4.78,-12.44 -14.65,-22.01 -28.8,-25.73 -30.63,-8.05 -45.93,15.57 -68.78,38.13 -19.61,19.36 -45.88,37.31 -33.83,69.19 4.82,12.77 14.59,21.87 29,25.69 18.15,4.8 29.41,-3.91 42.4,-9.13 -1.98,9.39 -9.47,15.12 -10.16,29.3 -1.1,22.46 15.64,41.45 36.53,44.16 21.04,2.72 24.43,-7.73 37.89,-10.48z"/>
  </g>
  <polygon class="fil3 str2" points="230.9,627.83 358.74,627.83 291.58,842.76 551.27,533.8 374.63,533.8 467.84,373.43 324.93,372.61 "/>
 </g>
</svg>
